<?xml version="1.0" encoding="UTF-8" standalone="no"?>
<svg
   xmlns:dc="http://purl.org/dc/elements/1.1/"
   xmlns:cc="http://creativecommons.org/ns#"
   xmlns:rdf="http://www.w3.org/1999/02/22-rdf-syntax-ns#"
   xmlns:svg="http://www.w3.org/2000/svg"
   xmlns="http://www.w3.org/2000/svg"
   xmlns:sodipodi="http://sodipodi.sourceforge.net/DTD/sodipodi-0.dtd"
   xmlns:inkscape="http://www.inkscape.org/namespaces/inkscape"
   width="3442.5"
   height="842.5"
   viewBox="0 0 2754 674"
   version="1.1"
   id="svg3612"
   inkscape:version="0.48.5 r10040"
   sodipodi:docname="classes.png">
  <metadata
     id="metadata3862">
    <rdf:RDF>
      <cc:Work
         rdf:about="">
        <dc:format>image/svg+xml</dc:format>
        <dc:type
           rdf:resource="http://purl.org/dc/dcmitype/StillImage" />
        <dc:title></dc:title>
      </cc:Work>
    </rdf:RDF>
  </metadata>
  <defs
     id="defs3860" />
  <sodipodi:namedview
     pagecolor="#ffffff"
     bordercolor="#666666"
     borderopacity="1"
     objecttolerance="10"
     gridtolerance="10"
     guidetolerance="10"
     inkscape:pageopacity="0"
     inkscape:pageshadow="2"
     inkscape:window-width="1218"
     inkscape:window-height="778"
     id="namedview3858"
     showgrid="false"
     showguides="false"
     inkscape:guide-bbox="true"
     inkscape:zoom="0.30588235"
     inkscape:cx="1721.25"
     inkscape:cy="421.25"
     inkscape:window-x="237"
     inkscape:window-y="1042"
     inkscape:window-maximized="1"
     inkscape:current-layer="svg3612">
    <sodipodi:guide
       orientation="1,0"
       position="161.03687,461.63904"
       id="guide4642" />
    <sodipodi:guide
       orientation="1,0"
       position="165.28442,469.97364"
       id="guide4644" />
    <sodipodi:guide
       orientation="0,1"
       position="1332.7021,536.78958"
       id="guide4652" />
    <sodipodi:guide
       orientation="0,1"
       position="1236.568,420.64784"
       id="guide4654" />
    <sodipodi:guide
       orientation="0,1"
       position="1214.6084,415.76793"
       id="guide4656" />
    <sodipodi:guide
       orientation="1,0"
       position="1251.2077,446.02334"
       id="guide4658" />
    <sodipodi:guide
       orientation="1,0"
       position="1256.0876,430.40765"
       id="guide4660" />
    <sodipodi:guide
       orientation="1,0"
       position="705.26619,198.04036"
       id="guide4702" />
  </sodipodi:namedview>
  <path
     style="fill:#e6e6e6;stroke:#000000;stroke-width:3;stroke-linecap:butt;stroke-linejoin:miter;stroke-opacity:1;stroke-miterlimit:4;stroke-dasharray:none"
     d="M -12.12492,715.18834 3489.9562,711.1467 3510.1644,244.33727 -76.791161,234.23317 z"
     id="path3019"
     inkscape:connector-curvature="0"
     transform="scale(0.8,0.8)" />
  <path
     style="fill:#666666;fill-opacity:1;stroke:none"
     d="M -2.017112,-10.894309 -31.697476,240.85908 2780.517,242.42277 2799.0672,-26.531166 z"
     id="path4666"
     inkscape:connector-curvature="0" />
  <path
     d="m 0,239.82 c 49.516077,-0.39 99.056121,-0.07 148.59617,-0.17 91.86598,0.09 183.75593,-0.24 275.62192,0.22 102.26771,-0.02 204.51146,0 306.77918,0 151.80776,0.27 303.59153,0.01 455.39933,0.19 127.0257,0.22 254.0755,0.02 381.1012,0.1 57.4732,0.93 115.0182,0.3 172.5154,0.49 68.7137,-0.01 137.4035,0.01 206.1172,-0.01 120.6266,0.45 241.2771,0.12 361.9036,0.23 152.5987,0.21 305.1734,0.1 457.7721,0.13 l 0,4 c -107.8521,0 -215.7042,0 -323.5562,0 -47.9343,0.14 -95.8685,-0.51 -143.8028,-0.29 -120.6265,-0.09 -241.277,0.25 -361.9035,-0.29 -130.2134,-0.05 -260.4508,0.15 -390.6641,-0.14 -116.6241,-0.05 -233.2481,0.11 -349.8721,-0.08 -146.1995,-0.61 -292.44684,0.26 -438.6463,-0.5 -119.61991,-0.06 -239.28776,0.17 -358.90767,-0.11 C 265.6516,243.15 132.8258,243.63 0,243.35 l 0,-3.53 z"
     id="path3740"
     style="fill:#000000"
     inkscape:connector-curvature="0" />
  <path
     d="m 2756.1061,610.28 0,63.72 L 0,674 0,602.15968 z"
     id="path3796"
     inkscape:connector-curvature="0"
     style="fill:#1a1a1a"
     sodipodi:nodetypes="ccccc" />
  <path
     style="fill:#999999;fill-opacity:1;stroke:#000000;stroke-width:4;stroke-miterlimit:4;stroke-opacity:1;stroke-dasharray:none"
     d="m 124.62535,309.33226 0,97.6 153.48455,0.1 -0.012,114.76008 138.6897,1.02468 -0.93669,35.23777 101.70257,1.02468 -0.93669,48.18326 120.43632,-1.13085 1.15284,-50.13879 89.92194,0.71851 -0.69651,-31.64522 137.77404,-0.66851 3.69571,-116.25327 128.52424,-0.41234 -0.8,-97.6 z"
     id="path4678"
     inkscape:connector-curvature="0"
     sodipodi:nodetypes="ccccccccccccccccc" />
  <text
     xml:space="preserve"
     style="font-size:32px;font-style:normal;font-weight:normal;line-height:125%;letter-spacing:0px;word-spacing:0px;fill:#000000;fill-opacity:1;stroke:none;font-family:Sans"
     x="564.21295"
     y="205.16975"
     id="text4686"
     sodipodi:linespacing="125%"><tspan
       sodipodi:role="line"
       id="tspan4688"
       x="564.21295"
       y="205.16975">A</tspan></text>
  <text
     xml:space="preserve"
     style="font-size:32px;font-style:normal;font-weight:normal;line-height:125%;letter-spacing:0px;word-spacing:0px;fill:#000000;fill-opacity:1;stroke:none;font-family:Sans"
     x="564.09662"
     y="444.74103"
     id="text4690"
     sodipodi:linespacing="125%"><tspan
       sodipodi:role="line"
       id="tspan4692"
       x="564.09662"
       y="444.74103">B</tspan></text>
  <text
     xml:space="preserve"
     style="font-size:32px;font-style:normal;font-weight:normal;line-height:125%;letter-spacing:0px;word-spacing:0px;fill:#000000;fill-opacity:1;stroke:none;font-family:Sans"
     x="1369.5372"
     y="345.66199"
     id="text4708"
     sodipodi:linespacing="125%"><tspan
       sodipodi:role="line"
       id="tspan4710"
       x="1369.5372"
       y="345.66199">E</tspan></text>
  <text
     xml:space="preserve"
     style="font-size:32px;font-style:normal;font-weight:normal;line-height:125%;letter-spacing:0px;word-spacing:0px;fill:#000000;fill-opacity:1;stroke:none;font-family:Sans"
     x="995.16815"
     y="598.92517"
     id="text4716"
     sodipodi:linespacing="125%"><tspan
       sodipodi:role="line"
       id="tspan4718"
       x="995.16815"
       y="598.92517">G</tspan></text>
  <path
     style="fill:#cccccc;fill-opacity:1;stroke:#000000;stroke-width:4;stroke-miterlimit:4;stroke-opacity:1;stroke-dasharray:none"
     d="m 1079.147,407.3524 0,118.36181 138.4,-1.10619 0.5506,34.84483 38.3312,0 61.4481,0 -0.5053,50.8573 122.4769,0 0.4194,-50.8573 7.8168,0 38.3311,0 38.3312,0 1.3506,-33.36706 141.0494,0.18151 0,-117.80871 z"
     id="path4680-1"
     inkscape:connector-curvature="0"
     sodipodi:nodetypes="cccccccccccccccc" />
  <text
     xml:space="preserve"
     style="font-size:32px;font-style:normal;font-weight:normal;line-height:125%;letter-spacing:0px;word-spacing:0px;fill:#000000;fill-opacity:1;stroke:none;font-family:Sans"
     x="1369.2365"
     y="503.80853"
     id="text4694-4"
     sodipodi:linespacing="125%"><tspan
       sodipodi:role="line"
       id="tspan4696-0"
       x="1369.2365"
       y="503.80853">C</tspan></text>
  <path
     d="m 1756.7219,559.07558 124.39,-0.01 -0.17,54.18 -124.37,-0.06 z"
     id="path3810-7-8"
     style="fill:#000000"
     inkscape:connector-curvature="0"
     sodipodi:nodetypes="ccccc" />
  <text
     xml:space="preserve"
     style="font-size:32px;font-style:normal;font-weight:normal;line-height:125%;letter-spacing:0px;word-spacing:0px;fill:#000000;fill-opacity:1;stroke:none;font-family:Sans"
     x="1805.6626"
     y="598.47253"
     id="text4698-9-8"
     sodipodi:linespacing="125%"><tspan
       sodipodi:role="line"
       id="tspan4700-4-2"
       x="1805.6626"
       y="598.47253"
       style="fill:#ffffff">D</tspan></text>
</svg>
