<?xml version="1.0" encoding="UTF-8" standalone="no"?>
<svg
   xmlns:dc="http://purl.org/dc/elements/1.1/"
   xmlns:cc="http://creativecommons.org/ns#"
   xmlns:rdf="http://www.w3.org/1999/02/22-rdf-syntax-ns#"
   xmlns:svg="http://www.w3.org/2000/svg"
   xmlns="http://www.w3.org/2000/svg"
   xmlns:sodipodi="http://sodipodi.sourceforge.net/DTD/sodipodi-0.dtd"
   xmlns:inkscape="http://www.inkscape.org/namespaces/inkscape"
   width="1154pt"
   height="674pt"
   viewBox="0 0 1154 674"
   version="1.1"
   id="svg3612"
   inkscape:version="0.48.5 r10040"
   sodipodi:docname="classes.svg">
  <metadata
     id="metadata3862">
    <rdf:RDF>
      <cc:Work
         rdf:about="">
        <dc:format>image/svg+xml</dc:format>
        <dc:type
           rdf:resource="http://purl.org/dc/dcmitype/StillImage" />
      </cc:Work>
    </rdf:RDF>
  </metadata>
  <defs
     id="defs3860" />
  <sodipodi:namedview
     pagecolor="#ffffff"
     bordercolor="#666666"
     borderopacity="1"
     objecttolerance="10"
     gridtolerance="10"
     guidetolerance="10"
     inkscape:pageopacity="0"
     inkscape:pageshadow="2"
     inkscape:window-width="1218"
     inkscape:window-height="778"
     id="namedview3858"
     showgrid="false"
     showguides="false"
     inkscape:guide-bbox="true"
     inkscape:zoom="0.49484862"
     inkscape:cx="722.22731"
     inkscape:cy="437.83198"
     inkscape:window-x="54"
     inkscape:window-y="-8"
     inkscape:window-maximized="1"
     inkscape:current-layer="svg3612">
    <sodipodi:guide
       orientation="1,0"
       position="161.03687,461.63904"
       id="guide4642" />
    <sodipodi:guide
       orientation="1,0"
       position="165.28442,469.97364"
       id="guide4644" />
    <sodipodi:guide
       orientation="0,1"
       position="1332.7021,536.78958"
       id="guide4652" />
    <sodipodi:guide
       orientation="0,1"
       position="1236.568,420.64784"
       id="guide4654" />
    <sodipodi:guide
       orientation="0,1"
       position="1214.6084,415.76793"
       id="guide4656" />
    <sodipodi:guide
       orientation="1,0"
       position="1251.2077,446.02334"
       id="guide4658" />
    <sodipodi:guide
       orientation="1,0"
       position="1256.0876,430.40765"
       id="guide4660" />
    <sodipodi:guide
       orientation="1,0"
       position="705.26619,198.04036"
       id="guide4702" />
  </sodipodi:namedview>
  <path
     style="fill:#e6e6e6;stroke:none;stroke-width:1px;stroke-linecap:butt;stroke-linejoin:miter;stroke-opacity:1;fill-opacity:1"
     d="m 1461.5574,304.49441 -208.1656,-0.48865 0.4886,120.69698 -172.4941,0 1.466,212.56352 -175.91463,0.48865 -1.46595,58.14956 -111.90126,1.95461 1.95461,30.29641 45.44461,0.48865 20.52338,-3.42056 47.39922,4.88651 22.96663,15.63686 42.02405,12.70495 113.85584,-1.46596 41.0468,-15.1482 49.3538,-21.01203 4.8865,-9.77303 31.2737,-9.77304 1.9546,-19.05742 57.1723,11.72764 52.7744,28.34181 6.3525,10.75034 123.1402,1.9546 z"
     id="path4684"
     inkscape:connector-curvature="0"
     transform="scale(0.8,0.8)" />
  <path
     style="fill:#e6e6e6;stroke:none;stroke-width:1px;stroke-linecap:butt;stroke-linejoin:miter;stroke-opacity:1;fill-opacity:1"
     d="m -5.8638211,303.02845 168.5848611,-0.9773 0.48865,121.18564 185.19902,0 -0.48866,214.02947 172.98273,-1.46596 2.93191,61.57013 125.09485,0.48865 -0.9773,26.38719 -118.25373,-5.37517 -94.79844,2.93191 -66.94529,-29.80775 -66.94529,-29.80776 -5.86383,-9.77304 -40.55809,-20.52337 -14.65955,2.44326 -37.62619,-11.23899 -81.60484,0 -50.331136,13.68225 -26.875847,14.1709 -51.797087,0.48865 z"
     id="path4682"
     inkscape:connector-curvature="0"
     transform="scale(0.8,0.8)" />
  <path
     style="fill:#cccccc;stroke:none;stroke-width:1px;stroke-linecap:butt;stroke-linejoin:miter;stroke-opacity:1;fill-opacity:1"
     d="m 348,422.5 0,214 173,-2 3,63 381,0 4,-62 174,2 0,-213 z"
     id="path4680"
     inkscape:connector-curvature="0"
     transform="scale(0.8,0.8)" />
  <path
     style="fill:#999999;stroke:none;stroke-width:1px;stroke-linecap:butt;stroke-linejoin:miter;stroke-opacity:1;fill-opacity:1"
     d="m 163,301.5 0,122 1091,1 -1,-122 z"
     id="path4678"
     inkscape:connector-curvature="0"
     transform="scale(0.8,0.8)" />
  <path
     style="fill:#666666;stroke:none;stroke-width:1px;stroke-linecap:butt;stroke-linejoin:miter;stroke-opacity:1;fill-opacity:1"
     d="m -7.8184282,-13.617886 -15.6368568,314.691736 1481.592185,1.95461 9.773,-336.192417 z"
     id="path4666"
     inkscape:connector-curvature="0"
     transform="scale(0.8,0.8)" />
  <path
     fill="#72bfc5"
     d=" M 0.00 239.82 C 20.66 239.43 41.33 239.75 62.00 239.65 C 100.33 239.74 138.67 239.41 177.00 239.87 C 219.67 239.85 262.33 239.87 305.00 239.87 C 368.34 240.14 431.67 239.88 495.01 240.06 C 548.01 240.28 601.02 240.08 654.02 240.16 C 678.00 241.09 702.01 240.46 726.00 240.65 C 754.67 240.64 783.33 240.66 812.00 240.64 C 862.33 241.09 912.67 240.76 963.00 240.87 C 1026.67 241.08 1090.33 240.97 1154.00 241.00 L 1154.00 245.00 C 1109.00 245.00 1064.00 245.00 1019.00 245.00 C 999.00 245.14 979.00 244.49 959.00 244.71 C 908.67 244.62 858.33 244.96 808.00 244.42 C 753.67 244.37 699.33 244.57 645.00 244.28 C 596.34 244.23 547.68 244.39 499.02 244.20 C 438.02 243.59 377.00 244.46 316.00 243.70 C 266.09 243.64 216.16 243.87 166.25 243.59 C 110.84 243.15 55.42 243.63 0.00 243.35 L 0.00 239.82 Z"
     id="path3740"
     style="fill:#000000" />
  <path
     fill="#333399"
     d=" M 276.37 336.47 C 321.57 335.78 366.79 336.66 412.00 336.50 C 434.01 336.32 456.00 336.91 478.00 336.75 C 497.33 336.85 516.67 336.51 536.00 337.00 C 565.00 337.11 594.00 336.74 623.00 337.26 C 651.33 337.33 679.67 337.02 708.00 337.51 C 757.00 337.30 805.99 337.95 855.00 337.73 C 859.25 337.69 863.51 337.70 867.76 338.13 C 868.32 362.71 867.83 387.32 868.01 411.91 C 867.99 413.21 867.99 414.52 868.00 415.83 C 868.00 442.22 868.00 468.61 868.00 495.00 C 867.98 500.57 868.16 506.16 867.73 511.73 C 851.83 512.35 835.90 511.83 820.00 512.00 C 789.12 512.04 758.24 511.92 727.36 512.06 C 727.23 527.97 727.71 543.90 727.11 559.80 C 698.06 560.27 669.00 559.86 639.95 560.01 C 639.76 558.65 639.49 557.31 639.24 555.98 C 667.23 555.96 695.23 556.09 723.23 555.93 C 723.70 540.09 723.01 524.24 723.55 508.41 C 731.01 507.67 738.52 508.06 746.00 508.01 C 785.31 507.95 824.63 508.08 863.94 507.94 C 864.03 452.58 864.06 397.22 863.93 341.85 C 833.62 341.45 803.31 342.09 773.01 341.46 C 723.34 341.63 673.67 341.11 624.00 341.27 C 595.67 340.76 567.33 341.09 539.00 341.01 C 510.67 340.47 482.32 340.85 453.98 340.74 C 427.99 340.21 401.99 340.58 376.00 340.47 C 344.04 340.13 312.07 340.29 280.11 340.28 C 279.89 396.18 279.99 452.09 280.06 507.99 C 319.37 507.52 358.68 507.02 398.00 506.54 C 404.93 506.71 411.90 505.90 418.80 506.83 C 419.78 523.14 420.05 539.49 420.53 555.83 C 452.63 556.23 484.75 555.90 516.85 555.99 C 516.55 557.32 516.26 558.65 516.05 560.01 C 488.70 559.99 461.35 560.01 434.00 560.00 C 428.35 559.98 422.70 560.13 417.06 559.78 C 415.84 543.30 415.90 526.75 415.00 510.25 C 377.01 510.94 339.01 511.15 301.02 511.75 C 292.79 511.51 284.56 512.37 276.35 511.76 C 275.81 506.19 276.01 500.59 276.00 495.00 C 276.00 468.28 276.00 441.56 276.00 414.84 C 275.99 413.52 275.99 412.21 275.99 410.91 C 276.01 391.94 276.00 372.97 276.00 354.00 C 276.01 348.15 275.79 342.29 276.37 336.47 Z"
     id="path3754"
     style="fill:#000000" />
  <path
     d="m 132.22754,243.36336 0,93.8567 148.05678,-0.87501 c 0,0 0,2.61 0.01,3.93 -30.33,-0.27 -151.46482,-0.0185 -151.46482,-0.0185 l 0,-96.89324 z"
     id="path3758"
     style="fill:#000000"
     inkscape:connector-curvature="0"
     sodipodi:nodetypes="ccccccc" />
  <path
     d="m 864.10608,337.48173 136.86012,0 0,-92.91339 3.9039,0 0,96.81732 c 24.2052,0.059 -138.82206,0.66017 -138.82206,0.66017 z"
     id="path3760"
     style="fill:#000000"
     inkscape:connector-curvature="0"
     sodipodi:nodetypes="ccccccc" />
  <path
     d="m -1.8992141,519.22908 c 0,0 21.2592141,0.0309 29.9392141,0.10092 7.69,0.35 13.97,-4.64 20.61,-7.7 8.08,-4.47 17.16,-6.4 25.91,-9.07 5.69,-1.6 11.31,-3.43 16.99,-5.05 5.98,-1.8 12.29,-1.22 18.45,-1.25 13.66,0.01 27.33,0.04 41,-0.01 5.49,0.02 11.15,-0.5 16.46,1.24 7.27,2.33 14.38,5.16 21.69,7.4 6.11,2.18 12.64,-2.99 18.51,0.55 9.46,4.84 18.93,9.67 28.44,14.41 4.36,1.94 4.94,7.83 9.51,9.49 32.7,14.61 65.37,29.32 98.01,44.07 3.25,1.5 6.89,1.63 10.42,1.46 10.99,-0.49 21.99,-0.59 32.98,-0.95 14.69,-0.12 29.4,-1.4 44.08,-0.24 28.27,1.75 56.59,2.56 84.9,3.36 -0.01,1.32 -0.01,2.65 0,3.99 -28.83,-0.72 -57.67,-1.75 -86.46,-3.45 -13.16,-1.02 -26.34,0.15 -39.51,0.27 -13.36,0.37 -26.73,0.69 -40.09,1.12 -4.69,0.32 -8.76,-2.32 -12.89,-4.09 -31.91,-14.42 -63.87,-28.72 -95.8,-43.11 -3.92,-1.51 -3.56,-7.05 -7.49,-8.58 -9.27,-4.71 -18.62,-9.29 -27.86,-14.08 -3.58,-2.15 -7.61,0.04 -11.35,0.43 -3.25,0.75 -6.39,-0.72 -9.41,-1.7 -8.55,-3.04 -16.73908,-5.20816 -25.44908,-7.72816 -36.74628,0.66659 -23.11324,-0.55046 -41.77092,-0.0918 -8.98,0.98 -18.31,-1.19 -27.04,1.82 -9.75,2.99 -19.56,5.77 -29.34,8.66 -6.09,1.77 -11.54,5.1 -17.22,7.81 -4.27,1.98 -8.36,4.98 -13.25,4.94 -10.36,0.07 -31.07,0 -31.07,0 z"
     id="path3766"
     style="fill:#000000"
     inkscape:connector-curvature="0"
     sodipodi:nodetypes="ccccccccccccccccccccccccccccccccccc" />
  <path
     d="m 92.11,536.05 c 8.6,-0.77 17.28,0.17 25.88,-0.9 16.08653,-9.15108 30.94046,-3.24542 41.05,-0.64 15.7,2.65 30.92,8.75 47.01,8.62 3.91,0.24 7.29,2.38 10.69,4.11 4.87,2.62 9.97,4.79 15.03,7.05 4.53,1.8 6.99,6.55 11.56,8.33 11.81,5.5 23.84,10.57 36.14,14.87 18.24,6.55 36.3,13.66 54.88,19.21 6.47,1.74 12.7,5.26 19.59,4.71 13.02,-0.59 26.05,-1.18 39.08,-1.64 11.99,-0.07 23.98,0.01 35.98,-0.03 18.1,-0.05 36.15,1.36 54.23,1.93 10.92,0.14 21.84,0.51 32.76,0.58 0.05,2.48 0.16,4.97 0.31,7.45 16.89,0.72 33.81,0.09 50.71,0.3 24.22,-0.18 48.45,0.34 72.66,-0.24 0.11,-1.67 0.21,-3.33 0.29,-4.98 10.35,0.07 20.7,0.57 31.05,0.48 6.71,0.02 13.25,-1.97 19.98,-1.79 9.13,0 17.88,3.21 27,3.37 6.34,-0.05 11.63,3.81 17.35,5.95 8.28,3.23 16.61,6.39 25.22,8.65 4.74,1.23 9.42,3.1 14.4,3.07 30.68,-0.02 61.37,-0.01 92.06,0 7.57,0.01 14.41,-3.56 21.37,-6.06 4.3,-1.64 9.3,-0.1 13.36,-2.62 7.33,-4.34 15.08,-7.9 22.98,-11.08 3.9,-1.65 8.05,-2.95 11.45,-5.58 8.03,-7.35 19.44,-8.02 29.35,-11.3 0.35,-3.29 -0.27,-6.99 1.49,-9.93 3.15,-2.61 7.45,-0.06 10.98,0.38 20.65054,2.93622 30.536,7.47731 40.92,7.93 10.6,4.61 21.15,9.36 31.76,13.96 2.97,1.17 5.27,3.42 7.65,5.47 1.97,2.01 4.99,1.44 7.53,1.66 6.72,0 13.37,1.12 20.07,1.39 22.7,-0.15 45.37,1.34 68.07,1.55 L 1154,674 0,674 0,553.66 c 5.6,0.39 11.2,1.51 16.83,1.17 11.52,-2.92 23.51,-3.67 34.94,-7.03 5.42,-1.81 10.53,-4.53 16.12,-5.84 8.07,-1.97 16.06,-4.33 24.22,-5.91 z"
     id="path3796"
     inkscape:connector-curvature="0"
     style="fill:#1a1a1a"
     sodipodi:nodetypes="ccccccccccccccccccccccccccccccccccccccccccccc" />
  <path
     d="m 971.13,545.16 c 4.22,-3.95 45.6051,8.59001 47.9151,8.22001 -0.01,1.38 1.265,2.77 1.275,4.16 -1.31,0.11 -44.9301,-9.45001 -46.2201,-9.29001 -0.15,4.94 -0.37,9.89 -1.01,14.8 -8.13,2.8 -16.55,4.63 -24.7,7.35 -3.74,1.23 -2.2,6.78 -5.38,8.65 -4.16,2.33 -8.67,3.95 -12.97,6 -8,3.27 -15.51,7.9 -23.94,9.99 -8.06,1.58 -15.51,5.15 -23.19,7.91 -5.51,1.94 -10.83,4.95 -16.82,4.97 -27.98,0.89 -55.96,2.5 -83.96,1.68 -10.32,-1.09 -20.14,-4.72 -30.02,-7.69 -9.7,-2.62 -16.56,-10.56 -25.31,-14.99 -3.63,-0.72 -7.37,-0.28 -11.02,-0.84 -8.89,-1.36 -17.78,-3.03 -26.79,-3.35 -6.74,-0.29 -13.21,2.2 -19.94,2 -9.68,-0.25 -19.37,-0.43 -29.05,-0.76 -0.01,-1.34 -0.01,-2.67 0,-3.99 9.34,0.28 18.69,0.58 28.03,0.74 6.39,0.2 12.57,-1.82 18.94,-1.98 12.16,-0.23 23.98,3.47 36.11,3.69 2.36,0.1 4.85,0.24 6.93,1.51 7.79,4.5 14.29,11.34 23.06,14.03 7.15,2.33 14.32,4.64 21.65,6.37 8.93,2.22 18.18,1.19 27.28,1.39 17.71,0.26 35.4,-0.97 53.1,-1.41 6.36,-0.32 12.96,0.17 19,-2.21 7.01,-2.63 13.96,-5.43 20.99,-8.04 6.18,-2.38 12.89,-3.17 18.87,-6.14 7.97,-3.77 16.09,-7.23 24.09,-10.93 4.73,-1.53 3.04,-8.7 7.83,-10.03 7.82,-2.68 16.02,-4.17 23.76,-7.15 0.46,-4.87 -0.37,-10.04 1.49,-14.66 z"
     id="path3802"
     inkscape:connector-curvature="0"
     style="fill:#000000"
     sodipodi:nodetypes="cccccccccccccccccccccccccccccccccc" />
  <path
     d="m 1019.02,553.51 c 3.72,1.19 7.28,2.85 10.64,4.84 9.94,5.78 20.02,11.3 30.05,16.92 3.63,1.89 5.58,5.61 7.54,9.01 28.93,0.18 57.83,1.51 86.75,2.04 l 0,4 c -29.83,-0.55 -59.64,-2.03 -89.47,-1.88 -2.02,-3.51 -3.25,-7.93 -7.11,-9.9 -7.66,-4.35 -15.4,-8.57 -23.05,-12.94 -5.06,-2.8 -9.98,-5.91 -15.35,-8.1 -0.02,-1.34 -0.02,-2.67 0,-3.99 z"
     id="path3808"
     inkscape:connector-curvature="0"
     style="fill:#000000"
     sodipodi:nodetypes="ccccccccccc" />
  <path
     d="m 515.85,555.99 124.39,-0.01 -0.17,54.18 -124.37,-0.06 z"
     id="path3810"
     style="fill:#000000"
     inkscape:connector-curvature="0"
     sodipodi:nodetypes="ccccc" />
  <text
     xml:space="preserve"
     style="font-size:32px;font-style:normal;font-weight:normal;line-height:125%;letter-spacing:0px;word-spacing:0px;fill:#000000;fill-opacity:1;stroke:none;font-family:Sans"
     x="564.21295"
     y="205.16975"
     id="text4686"
     sodipodi:linespacing="125%"><tspan
       sodipodi:role="line"
       id="tspan4688"
       x="564.21295"
       y="205.16975">A</tspan></text>
  <text
     xml:space="preserve"
     style="font-size:32px;font-style:normal;font-weight:normal;line-height:125%;letter-spacing:0px;word-spacing:0px;fill:#000000;fill-opacity:1;stroke:none;font-family:Sans"
     x="564.21295"
     y="302.16913"
     id="text4690"
     sodipodi:linespacing="125%"><tspan
       sodipodi:role="line"
       id="tspan4692"
       x="564.21295"
       y="302.16913">B</tspan></text>
  <text
     xml:space="preserve"
     style="font-size:32px;font-style:normal;font-weight:normal;line-height:125%;letter-spacing:0px;word-spacing:0px;fill:#000000;fill-opacity:1;stroke:none;font-family:Sans"
     x="564.21295"
     y="457.3681"
     id="text4694"
     sodipodi:linespacing="125%"><tspan
       sodipodi:role="line"
       id="tspan4696"
       x="564.21295"
       y="457.3681">C</tspan></text>
  <text
     xml:space="preserve"
     style="font-size:32px;font-style:normal;font-weight:normal;line-height:125%;letter-spacing:0px;word-spacing:0px;fill:#000000;fill-opacity:1;stroke:none;font-family:Sans"
     x="564.21295"
     y="594.78387"
     id="text4698"
     sodipodi:linespacing="125%"><tspan
       sodipodi:role="line"
       id="tspan4700"
       x="564.21295"
       y="594.78387"
       style="fill:#ffffff">D</tspan></text>
  <text
     xml:space="preserve"
     style="font-size:40px;font-style:normal;font-weight:normal;line-height:125%;letter-spacing:0px;word-spacing:0px;fill:#000000;fill-opacity:1;stroke:none;font-family:Sans"
     x="117.20756"
     y="527.25208"
     id="text4704"
     sodipodi:linespacing="125%"
     transform="scale(0.8,0.8)"><tspan
       sodipodi:role="line"
       id="tspan4706"
       x="117.20756"
       y="527.25208">E</tspan></text>
  <text
     xml:space="preserve"
     style="font-size:32px;font-style:normal;font-weight:normal;line-height:125%;letter-spacing:0px;word-spacing:0px;fill:#000000;fill-opacity:1;stroke:none;font-family:Sans"
     x="1026.5765"
     y="439.58487"
     id="text4708"
     sodipodi:linespacing="125%"><tspan
       sodipodi:role="line"
       id="tspan4710"
       x="1026.5765"
       y="439.58487">E</tspan></text>
  <text
     xml:space="preserve"
     style="font-size:32px;font-style:normal;font-weight:normal;line-height:125%;letter-spacing:0px;word-spacing:0px;fill:#000000;fill-opacity:1;stroke:none;font-family:Sans"
     x="98.61602"
     y="528.50098"
     id="text4712"
     sodipodi:linespacing="125%"><tspan
       sodipodi:role="line"
       id="tspan4714"
       x="98.61602"
       y="528.50098">F</tspan></text>
  <text
     xml:space="preserve"
     style="font-size:32px;font-style:normal;font-weight:normal;line-height:125%;letter-spacing:0px;word-spacing:0px;fill:#000000;fill-opacity:1;stroke:none;font-family:Sans"
     x="992.62683"
     y="580.21729"
     id="text4716"
     sodipodi:linespacing="125%"><tspan
       sodipodi:role="line"
       id="tspan4718"
       x="992.62683"
       y="580.21729">G</tspan></text>
</svg>
