<?xml version="1.0" encoding="UTF-8" standalone="no"?>
<svg
   xmlns:dc="http://purl.org/dc/elements/1.1/"
   xmlns:cc="http://creativecommons.org/ns#"
   xmlns:rdf="http://www.w3.org/1999/02/22-rdf-syntax-ns#"
   xmlns:svg="http://www.w3.org/2000/svg"
   xmlns="http://www.w3.org/2000/svg"
   xmlns:sodipodi="http://sodipodi.sourceforge.net/DTD/sodipodi-0.dtd"
   xmlns:inkscape="http://www.inkscape.org/namespaces/inkscape"
   width="2000"
   height="2000"
   viewBox="0 0 1600 1600"
   version="1.1"
   id="svg2"
   inkscape:version="0.48.5 r10040"
   sodipodi:docname="holding.svg"
   inkscape:export-filename="D:\OI\Magistr\Diplomka\Thesis\src\figures\src\holding.png"
   inkscape:export-xdpi="90"
   inkscape:export-ydpi="90">
  <metadata
     id="metadata628">
    <rdf:RDF>
      <cc:Work
         rdf:about="">
        <dc:format>image/svg+xml</dc:format>
        <dc:type
           rdf:resource="http://purl.org/dc/dcmitype/StillImage" />
        <dc:title></dc:title>
      </cc:Work>
    </rdf:RDF>
  </metadata>
  <defs
     id="defs626">
    <marker
       inkscape:stockid="Arrow1Mstart"
       orient="auto"
       refY="0.0"
       refX="0.0"
       id="Arrow1Mstart"
       style="overflow:visible">
      <path
         id="path4974"
         d="M 0.0,0.0 L 5.0,-5.0 L -12.5,0.0 L 5.0,5.0 L 0.0,0.0 z "
         style="fill-rule:evenodd;stroke:#000000;stroke-width:1.0pt"
         transform="scale(0.4) translate(10,0)" />
    </marker>
    <marker
       inkscape:stockid="Arrow1Lstart"
       orient="auto"
       refY="0.0"
       refX="0.0"
       id="Arrow1Lstart"
       style="overflow:visible">
      <path
         id="path4968"
         d="M 0.0,0.0 L 5.0,-5.0 L -12.5,0.0 L 5.0,5.0 L 0.0,0.0 z "
         style="fill-rule:evenodd;stroke:#000000;stroke-width:1.0pt"
         transform="scale(0.8) translate(12.5,0)" />
    </marker>
    <marker
       inkscape:stockid="Arrow1Mend"
       orient="auto"
       refY="0.0"
       refX="0.0"
       id="Arrow1Mend"
       style="overflow:visible;">
      <path
         id="path4977"
         d="M 0.0,0.0 L 5.0,-5.0 L -12.5,0.0 L 5.0,5.0 L 0.0,0.0 z "
         style="fill-rule:evenodd;stroke:#000000;stroke-width:1.0pt;"
         transform="scale(0.4) rotate(180) translate(10,0)" />
    </marker>
    <marker
       inkscape:stockid="Arrow1Send"
       orient="auto"
       refY="0.0"
       refX="0.0"
       id="Arrow1Send"
       style="overflow:visible;">
      <path
         id="path4983"
         d="M 0.0,0.0 L 5.0,-5.0 L -12.5,0.0 L 5.0,5.0 L 0.0,0.0 z "
         style="fill-rule:evenodd;stroke:#000000;stroke-width:1.0pt;"
         transform="scale(0.2) rotate(180) translate(6,0)" />
    </marker>
    <marker
       inkscape:stockid="TriangleInS"
       orient="auto"
       refY="0.0"
       refX="0.0"
       id="TriangleInS"
       style="overflow:visible">
      <path
         id="path5107"
         d="M 5.77,0.0 L -2.88,5.0 L -2.88,-5.0 L 5.77,0.0 z "
         style="fill-rule:evenodd;stroke:#000000;stroke-width:1.0pt"
         transform="scale(-0.2)" />
    </marker>
    <marker
       inkscape:stockid="Arrow1Sstart"
       orient="auto"
       refY="0.0"
       refX="0.0"
       id="Arrow1Sstart"
       style="overflow:visible">
      <path
         id="path4980"
         d="M 0.0,0.0 L 5.0,-5.0 L -12.5,0.0 L 5.0,5.0 L 0.0,0.0 z "
         style="fill-rule:evenodd;stroke:#000000;stroke-width:1.0pt"
         transform="scale(0.2) translate(6,0)" />
    </marker>
    <marker
       inkscape:stockid="DotS"
       orient="auto"
       refY="0.0"
       refX="0.0"
       id="DotS"
       style="overflow:visible">
      <path
         id="path5035"
         d="M -2.5,-1.0 C -2.5,1.7600000 -4.7400000,4.0 -7.5,4.0 C -10.260000,4.0 -12.5,1.7600000 -12.5,-1.0 C -12.5,-3.7600000 -10.260000,-6.0 -7.5,-6.0 C -4.7400000,-6.0 -2.5,-3.7600000 -2.5,-1.0 z "
         style="fill-rule:evenodd;stroke:#000000;stroke-width:1.0pt"
         transform="scale(0.2) translate(7.4, 1)" />
    </marker>
    <marker
       inkscape:stockid="DotM"
       orient="auto"
       refY="0.0"
       refX="0.0"
       id="DotM"
       style="overflow:visible">
      <path
         id="path5032"
         d="M -2.5,-1.0 C -2.5,1.7600000 -4.7400000,4.0 -7.5,4.0 C -10.260000,4.0 -12.5,1.7600000 -12.5,-1.0 C -12.5,-3.7600000 -10.260000,-6.0 -7.5,-6.0 C -4.7400000,-6.0 -2.5,-3.7600000 -2.5,-1.0 z "
         style="fill-rule:evenodd;stroke:#000000;stroke-width:1.0pt"
         transform="scale(0.4) translate(7.4, 1)" />
    </marker>
    <marker
       inkscape:stockid="Arrow1Lend"
       orient="auto"
       refY="0.0"
       refX="0.0"
       id="Arrow1Lend"
       style="overflow:visible;">
      <path
         id="path4971"
         d="M 0.0,0.0 L 5.0,-5.0 L -12.5,0.0 L 5.0,5.0 L 0.0,0.0 z "
         style="fill-rule:evenodd;stroke:#000000;stroke-width:1.0pt;"
         transform="scale(0.8) rotate(180) translate(12.5,0)" />
    </marker>
    <marker
       inkscape:stockid="Arrow2Lend"
       orient="auto"
       refY="0.0"
       refX="0.0"
       id="Arrow2Lend"
       style="overflow:visible;">
      <path
         id="path4989"
         style="fill-rule:evenodd;stroke-width:0.62500000;stroke-linejoin:round;"
         d="M 8.7185878,4.0337352 L -2.2072895,0.016013256 L 8.7185884,-4.0017078 C 6.9730900,-1.6296469 6.9831476,1.6157441 8.7185878,4.0337352 z "
         transform="scale(1.1) rotate(180) translate(1,0)" />
    </marker>
  </defs>
  <sodipodi:namedview
     pagecolor="#ffffff"
     bordercolor="#666666"
     borderopacity="1"
     objecttolerance="10"
     gridtolerance="10"
     guidetolerance="10"
     inkscape:pageopacity="0"
     inkscape:pageshadow="2"
     inkscape:window-width="1680"
     inkscape:window-height="1028"
     id="namedview624"
     showgrid="false"
     showguides="false"
     inkscape:guide-bbox="true"
     inkscape:zoom="0.5734636"
     inkscape:cx="892.53806"
     inkscape:cy="890.57134"
     inkscape:window-x="-8"
     inkscape:window-y="-8"
     inkscape:window-maximized="1"
     inkscape:current-layer="svg2">
    <sodipodi:guide
       orientation="-0.93969262,0.34202014"
       position="801.47965,932.18249"
       id="guide4600" />
    <sodipodi:guide
       orientation="0,1"
       position="621.45499,897.65721"
       id="guide6362" />
  </sodipodi:namedview>
  <path
     d="m 626.49498,484.76418 c 2.66,0 5.33,0 8,0 0,2.67 -0.01,5.33 -0.01,7.99 -2.66,0.01 -5.32,0.01 -7.98,0.01 -0.02,-2.67 -0.02,-5.33 -0.01,-8 z"
     id="path152"
     style="fill:#808080"
     inkscape:connector-curvature="0" />
  <path
     d="m 626.52498,500.76418 c 2.64,0 5.29,0 7.94,0.01 -0.01,2.67 -0.01,5.35 0,8.03 -2.49,0.07 -4.98,0.07 -7.46,-0.11 -0.16,-0.26 -0.47,-0.8 -0.62,-1.06 0.02,-2.29 0.09,-4.58 0.14,-6.87 z"
     id="path208"
     style="fill:#808080"
     inkscape:connector-curvature="0" />
  <path
     d="m 626.49498,516.76418 c 2.66,0 5.33,0 8,0.01 0,2.66 -0.01,5.32 -0.02,7.98 -2.66,0 -5.31,0.01 -7.96,0.02 -0.03,-2.67 -0.03,-5.34 -0.02,-8.01 z"
     id="path220"
     style="fill:#808080"
     inkscape:connector-curvature="0" />
  <path
     d="m 626.47498,532.78418 c 0.51,0 1.54,0 2.05,0 1.94,-0.02 3.89,-0.07 5.84,-0.19 0.12,2.73 0.14,5.46 0.15,8.2 -1.23,0.01 -2.46,0.02 -3.69,0.02 -1.43,-0.04 -2.87,-0.05 -4.29,-0.07 -0.01,-0.43 -0.02,-1.29 -0.02,-1.72 -0.02,-2.08 -0.03,-4.16 -0.04,-6.24 z"
     id="path236"
     style="fill:#808080"
     inkscape:connector-curvature="0" />
  <path
     d="m 1071.655,532.70418 c 5.24,2.55 10.41,5.23 15.65,7.79 2.64,1.3 5.26,2.63 7.9,3.96 0.16,-1.24 0.33,-2.49 0.51,-3.73 23.48,-0.02 46.99,5.26 68.14,15.48 11.4,5.3 21.95,12.23 31.84,19.96 8.12,6.29 15.52,13.53 22.21,21.32 5.61,6.04 10.21,12.9 14.96,19.61 4.5,7.36 8.9,14.81 12.27,22.77 5.19,11 9.05,22.65 11.74,34.51 1.78,7.38 2.88,14.9 3.74,22.44 2.9,31 -1.88,62.77 -14.76,91.16 -16.77,38.51 -48.21,70.61 -86.82,87.35 -3.54,1.37 -7.07,2.8 -10.49,4.44 -5.57,1.76 -11.23,3.23 -16.8,5 -3.3,0.57 -6.6,1.11 -9.89,1.67 0.22,2.66 0.45,5.32 0.68,7.99 -8.44,-3.04 -16.56,-7.02 -25.22,-9.39 -0.03,0.93 -0.09,2.8 -0.12,3.73 -128.62002,0.01 -257.24002,0 -385.86002,0.01 -1.02,-0.01 -2.02,-0.01 -3.03,0 -15.97,-0.03 -31.94,0.01 -47.92,-0.02 -0.01,2.62 -0.02,5.25 -0.03,7.88 -5.43,-2.7 -10.84,-5.43 -16.27,-8.12 -1.28,-0.65 -2.55,-1.3 -3.81,-1.96 l -0.75,-0.39 c -0.65,-0.34 -1.97,-1.03 -2.63,-1.37 3.59,-2.49 7.63,-4.2 11.5,-6.18 3.98,-2 7.98,-3.96 11.96,-5.97 0,2.67 0.01,5.34 0.02,8.02 13.62,0.04 27.25,-0.06 40.87,0.05 3.36,0.05 6.72,0.05 10.08,0 29.19,-0.27 58.39,-0.19 87.59,-0.07 2.14,0.29 4.27,0.65 6.45,0.73 21.32,-0.11 42.65,0.04 63.98,-0.05 23.67,0.54 47.34,0.15 71.02,0.27 51.93,0.04 103.87002,-0.14 155.80002,0.1 0.41,1.06 0.83,2.14 1.26,3.21 2.3,-1.52 4.61,-3.06 6.93,-4.58 0.33,-0.2 1,-0.61 1.34,-0.81 5.01,-2.82 9.81,-5.98 14.74,-8.93 0.22,2.64 0.47,5.3 0.72,7.96 29.56,-5.27 57.51,-19.27 79.27,-39.97 19.11,-17.64 33.58,-40.11 42.47,-64.5 11.02,-29.46 13.28,-61.97 7.33,-92.8 -1.63,-8.94 -4.26,-17.64 -7.41,-26.15 -2.47,-7.26 -5.9,-14.15 -9.29,-21.02 -3.89,-7.06 -8.06,-13.97 -12.9,-20.42 -3.23,-4.94 -7.33,-9.2 -11.11,-13.7 -8.41,-9.3 -18.01,-17.5 -28.32,-24.62 -25.02,-17.2 -55.29,-26.79 -85.69,-26.61 -0.11,-0.93 -0.33,-2.77 -0.43,-3.69 -7.85,3.72 -15.55,7.76 -23.38,11.52 -0.1,-2.61 -0.17,-5.21 -0.27,-7.81 -49.25,0.15 -98.49002,-0.11 -147.73002,0.13 -28.2,-0.19 -56.41,-0.09 -84.61,-0.04 -57.49,-0.08 -114.98,-0.08 -172.47,-0.05 -8.73,0.03 -17.47,0.01 -26.2,0 -0.04,-0.81 -0.12,-2.43 -0.16,-3.24 0.03,-1.61 0.12,-3.22 0.21,-4.83 9.09,0.05 18.19,0.02 27.29,0.01 59.79,0.07 119.59,-0.03 179.38,0.03 9.58,-0.03 19.17,0.02 28.75,-0.06 2.39,0.02 4.78,0.04 7.17,0.03 13.14,0.03 26.27,0 39.41,0.02 49.7,-0.03 99.41002,0.05 149.11002,-0.05 0,-1.38 0.02,-2.76 0.04,-4.14 0,-1.29 0.02,-2.59 0.04,-3.88 z"
     id="path238"
     style="fill:#000000"
     inkscape:connector-curvature="0" />
  <path
     d="m 615.56498,534.54418 c 3.64,1.5 7.29,2.99 10.95,4.48 0,0.43 0.01,1.29 0.02,1.72 1.42,0.02 2.86,0.03 4.29,0.07 3.12,1.13 6.17,2.46 9.03,4.16 -1.88,1.19 -3.73,2.41 -5.65,3.51 -2.56,0.31 -5.14,0.3 -7.71,0.33 -0.01,1.4 -0.01,2.81 -0.01,4.23 -3.09,1.77 -6.16,3.58 -9.24,5.38 -0.19,-2.61 -0.38,-5.22 -0.56,-7.83 -11.16,1.54 -22.05,4.64 -32.53,8.71 -13.39,5.65 -26.4,12.53 -37.77,21.65 -12,9.26 -22.87,20.12 -31.74,32.43 -3.1,4.12 -6.05,8.35 -8.58,12.84 -6.37,10.47 -11.47,21.7 -15.37,33.32 -4.08,11.17 -6.52,22.88 -7.96,34.68 -4.22,34.37 2.2,69.96 18.35,100.6 13.04,24.63 32.14,46.22 55.68,61.26 0.84,0.57 1.7,1.14 2.56,1.71 16.54,10.2 34.94,17.54 54.17,20.64 2.09,0.38 4.19,0.68 6.3,0.93 2.15,0.25 4.3,0.57 6.46,0.78 2.84,0.29 5.7,0.21 8.54,0.15 0.47,0.25 1.42,0.74 1.89,0.98 -0.59,2.56 1.33,7.58 -2.76,7.62 -0.03,-1.38 -0.06,-2.76 -0.08,-4.12 -2.66,-0.01 -5.31,-0.01 -7.96,-0.01 -0.01,0.81 -0.04,2.41 -0.05,3.21 -0.94,-0.01 -2.8,-0.02 -3.73,-0.03 l -0.52,-0.01 -1.36,-0.03 -0.63,-0.12 c -1.66,-0.37 -3.33,-0.67 -4.98,-0.96 -0.69,-0.1 -2.06,-0.29 -2.75,-0.39 -6.71,-1.33 -13.34,-2.98 -19.9,-4.91 -12.3,-3.85 -23.99,-9.34 -35.1,-15.82 -0.87,-0.56 -1.74,-1.12 -2.59,-1.69 -34.12,-21.31 -59.86,-55.3 -71.99,-93.58 -7.21,-21.46 -9.78,-44.39 -8.38,-66.95 0.9,-14.02 3.32,-27.96 7.43,-41.4 1.91,-5.52 3.86,-11.02 5.93,-16.48 3.68,-7.91 7.15,-15.96 11.92,-23.29 4.84,-8.1 10.28,-15.89 16.44,-23.04 10.81,-12.61 23.35,-23.84 37.37,-32.77 10.8,-6.91 22.3,-12.77 34.44,-16.93 9.25,-3.3 18.85,-5.54 28.54,-7.09 -0.13,-2.65 -0.27,-5.3 -0.41,-7.94 z"
     id="path242"
     style="fill:#000000"
     inkscape:connector-curvature="0" />
  <path
     d="m 626.49498,548.81418 c 2.57,-0.03 5.15,-0.02 7.71,-0.33 0.21,2.76 0.34,5.52 0.39,8.28 -2.7,0 -5.41,0 -8.11,0 0,-0.93 0,-2.79 0,-3.72 0,-1.42 0,-2.83 0.01,-4.23 z"
     id="path250"
     style="fill:#808080"
     inkscape:connector-curvature="0" />
  <path
     d="m 1061.375,562.65418 c 7.92,4.19 16.23,7.67 23.88,12.35 -8.16,3.46 -15.89,7.84 -23.89,11.63 -0.02,-2.7 -0.04,-5.39 -0.04,-8.09 -80.49002,0.06 -160.98002,-0.05 -241.46002,-0.01 -1.76,0 -3.51,-0.03 -5.25,0 -29.1,-0.05 -58.19,0.03 -87.28,-0.01 0.01,-2.14 0.02,-4.28 0.05,-6.41 0,-0.4 0.01,-1.2 0.01,-1.59 23.7,-0.02 47.39,0 71.09,-0.01 45.36,0.01 90.73,-0.01 136.09,-0.01 42.26,0.02 84.53002,0 126.79002,0.01 -0.01,-2.62 0,-5.24 0.01,-7.86 z"
     id="path264"
     style="fill:#4d4d4d"
     inkscape:connector-curvature="0" />
  <path
     d="m 626.37498,564.75418 c 2.68,0.01 5.36,0 8.05,0 -0.08,2.66 -0.08,5.33 -0.08,7.99 -2.6,0.01 -5.19,0.02 -7.78,0.04 l -0.14,-0.79 c -0.12,-2.41 -0.08,-4.83 -0.05,-7.24 z"
     id="path266"
     style="fill:#808080"
     inkscape:connector-curvature="0" />
  <path
     d="m 626.38498,580.75418 c 2.65,0.01 5.3,0.01 7.95,-0.01 0.02,2.67 0.03,5.35 0.03,8.02 -2.67,0 -5.33,0 -8,0 -0.01,-2.67 0,-5.34 0.02,-8.01 z"
     id="path278"
     style="fill:#808080"
     inkscape:connector-curvature="0" />
  <path
     d="m 626.38498,596.75418 c 2.65,0.01 5.29,0.01 7.94,-0.01 0.03,2.67 0.04,5.34 0.04,8.02 -2.67,0 -5.33,0 -8,0 0,-2.67 0,-5.34 0.02,-8.01 z"
     id="path288"
     style="fill:#808080"
     inkscape:connector-curvature="0" />
  <path
     d="m 626.38498,612.75418 c 2.65,0.01 5.3,0.01 7.95,0 0.02,2.66 0.03,5.34 0.03,8.01 -2.67,0 -5.33,0 -8,0 0,-2.68 0,-5.34 0.02,-8.01 z"
     id="path292"
     style="fill:#808080"
     inkscape:connector-curvature="0" />
  <path
     d="m 626.34498,628.65418 0.47,-0.12 c 2.03,0.11 4.08,0.2 6.12,0.21 l 1.41,0.01 c 0.01,2.67 0.02,5.34 0.02,8.01 -2.66,0 -5.33,0 -7.99,0 -0.01,-2.71 -0.01,-5.41 -0.03,-8.11 z"
     id="path312"
     style="fill:#808080"
     inkscape:connector-curvature="0" />
  <path
     d="m 626.23498,644.77418 c 2.67,-0.01 5.33,-0.01 8,-0.01 0,2.67 0,5.34 -0.01,8.01 -2.66,-0.01 -5.32,-0.01 -7.98,-0.02 -0.01,-2.66 -0.01,-5.32 -0.01,-7.98 z"
     id="path340"
     style="fill:#808080"
     inkscape:connector-curvature="0" />
  <path
     d="m 626.23498,660.77418 c 2.66,-0.01 5.33,-0.02 8,-0.01 0,2.67 0,5.34 -0.01,8.01 -2.66,-0.01 -5.32,-0.01 -7.98,-0.02 -0.01,-2.66 -0.01,-5.32 -0.01,-7.98 z"
     id="path348"
     style="fill:#808080"
     inkscape:connector-curvature="0" />
  <path
     d="m 626.27498,676.75418 c 2.65,0.01 5.3,0.01 7.95,0 0.02,2.68 0.01,5.37 -0.04,8.05 -2.64,-0.03 -5.28,-0.05 -7.92,-0.08 -0.03,-2.66 -0.03,-5.31 0.01,-7.97 z"
     id="path390"
     style="fill:#808080"
     inkscape:connector-curvature="0" />
  <path
     d="m 626.26498,692.76418 c 2.66,0 5.31,0 7.97,-0.01 0.01,2.68 0,5.36 -0.06,8.05 -2.65,-0.03 -5.29,-0.04 -7.93,-0.06 -0.02,-2.67 -0.01,-5.33 0.02,-7.98 z"
     id="path412"
     style="fill:#808080"
     inkscape:connector-curvature="0" />
  <path
     d="m 626.10498,708.77418 c 2.67,-0.01 5.34,-0.01 8.01,-0.01 0,2.67 0,5.34 -0.01,8.01 -2.67,-0.01 -5.33,-0.01 -7.99,-0.01 0,-2.67 -0.01,-5.33 -0.01,-7.99 z"
     id="path414"
     style="fill:#808080"
     inkscape:connector-curvature="0" />
  <path
     d="m 663.36418,842.13118 c 10.14353,-16.4012 20.24516,-32.8282 30.4044,-49.219 1.17826,0.7153 2.35653,1.4359 3.54003,2.1564 -10.16448,16.5411 -20.39703,33.0459 -30.58245,49.5767 -0.27755,0.4354 -0.54986,0.876 -0.81693,1.3166 -2.70215,4.3802 -5.41477,8.7552 -8.10644,13.1406 1.18873,0.7206 2.37747,1.4411 3.57144,2.1668 -3.97467,2.4467 -7.94411,4.9038 -11.92925,7.3349 0.38228,-4.5927 0.80645,-9.1855 1.18874,-13.7782 1.20444,0.6894 2.40365,1.3944 3.59239,2.1046 2.77546,-4.4891 5.55092,-8.9833 8.32114,-13.4776 0.20424,-0.3317 0.6127,-0.9901 0.81693,-1.3218 z"
     id="path424"
     inkscape:connector-curvature="0"
     style="fill:#808080;fill-opacity:1" />
  <path
     d="m 626.11498,724.77418 c 2.66,-0.01 5.33,-0.02 8,-0.01 0,2.67 0,5.33 -0.01,8 -2.66,0 -5.32,0 -7.98,0 -0.01,-2.67 -0.02,-5.33 -0.01,-7.99 z"
     id="path426"
     style="fill:#808080"
     inkscape:connector-curvature="0" />
  <path
     d="m 626.10498,740.77418 c 2.67,-0.01 5.34,-0.02 8.01,-0.01 0,2.67 0,5.33 -0.01,8 -2.67,0 -5.33,0 -7.99,0 0,-2.67 -0.01,-5.33 -0.01,-7.99 z"
     id="path428"
     style="fill:#808080"
     inkscape:connector-curvature="0" />
  <path
     d="m 626.11498,756.77418 c 2.66,-0.01 5.33,-0.02 8,-0.01 0,2.67 0,5.34 -0.02,8.01 -2.67,-0.01 -5.32,-0.01 -7.98,-0.01 0,-2.67 -0.01,-5.33 0,-7.99 z"
     id="path430"
     style="fill:#808080"
     inkscape:connector-curvature="0" />
  <path
     d="m 626.10498,772.77418 c 2.67,-0.01 5.34,-0.02 8.01,-0.01 0,2.66 0,5.33 -0.01,8 -2.66,0 -5.32,0 -7.98,0 -0.01,-2.67 -0.02,-5.33 -0.02,-7.99 z"
     id="path432"
     style="fill:#808080"
     inkscape:connector-curvature="0" />
  <path
     d="m 625.99498,788.77418 c 2.66,-0.01 5.32,-0.01 7.99,-0.01 0,2.66 0,5.33 0,8 -2.67,0 -5.33,0 -8,0 0,-2.67 0,-5.34 0.01,-7.99 z"
     id="path434"
     style="fill:#808080"
     inkscape:connector-curvature="0" />
  <path
     d="m 556.76498,856.08418 c 9.65,-26.25 33.74,-46.71 61.44,-51.22 19.97,-3.43 41.12,1.17 57.82,12.67 -0.39,0.64 -1.17,1.91 -1.56,2.55 -1.92,-1.2 -3.84,-2.39 -5.75,-3.59 -1.28,2.31 -2.47,4.78 -4.55,6.5 0.63,-2.6 2.06,-4.88 3.4,-7.17 -5.59,-2.86 -11.45,-5.2 -17.52,-6.79 -0.64,2.31 -1.27,4.63 -1.92,6.95 -0.3,-0.14 -0.91,-0.43 -1.21,-0.57 0.6,-2.27 1.21,-4.53 1.8,-6.79 -1.74,-0.33 -4.96999,-1.2198 -7.25754,-1.3373 -1.08452,8.4848 -2.73246,21.6073 -2.73246,21.6073 0,0 -3.53,26.57 -4.84,39.91 -1.04,-0.02 -2.08,-0.03 -3.12,-0.03 0.33,-2.67 0.62,-5.35 1.06,-8 0.54,-0.02 1.62,-0.05 2.15,-0.07 0.01,-2.64 0.02,-5.28 0.03,-7.92 l -1.26,-0.01 c 2.11,-15.14 4.67397,-39.4518 4.67397,-39.4518 0,0 0.55228,-4.2863 0.49822,-6.1553 -1.45855,-0.6202 -3.04711,-0.3408 -3.93219,-0.3929 0,-0.5 -0.01,-1.51 -0.01,-2.02 -2.67,0 -5.33,0.01 -7.99,0.02 0,0.53 0,1.58 0,2.11 -5.03,0.47 -10.03,1.3 -14.91,2.65 0.59,2.19 1.17,4.38 1.76,6.58 -0.34,0.07 -1,0.21 -1.33,0.28 -0.59,-2.19 -1.19,-4.38 -1.78,-6.56 -5.57,1.84 -10.97,4.12 -16.1,6.95 1.04,1.86 2.08,3.72 3.13,5.57 -0.25,0.2 -0.76,0.6 -1.02,0.8 -1.08,-1.87 -2.17,-3.73 -3.26,-5.59 -5.64,3.38 -10.75,7.56 -15.5,12.09 1.64,1.69 3.28,3.38 4.69,5.27 -2.39,-0.58 -3.96,-2.58 -5.66,-4.18 -3.37,3.67 -6.35,7.65 -9.16,11.75 1.99,1.18 4.06,2.36 5.46,4.27 -2.2,-0.71 -4.23,-1.81 -6.24,-2.93 -2.69,4.42 -4.89,9.12 -6.74,13.96 -0.86,-0.57 -1.72,-1.14 -2.56,-1.71 z"
     id="path436"
     inkscape:connector-curvature="0"
     style="fill:#000000"
     sodipodi:nodetypes="ccccccccccccccccccccccccccccccccccccccccc" />
  <path
     d="m 625.98498,820.77418 c 2.67,-0.01 5.33,-0.01 8,-0.01 0,2.66 0,5.33 0,8 -2.67,0 -5.33,0 -7.99,0 -0.01,-2.67 -0.01,-5.33 -0.01,-7.99 z"
     id="path448"
     style="fill:#808080"
     inkscape:connector-curvature="0" />
  <path
     d="m 680.88498,824.92418 c 0.51,-0.85 1.03,-1.7 1.56,-2.54 17.05,14.46 27.72,36 28.88,58.33 -3.36,0.05 -6.72,0.05 -10.08,0 -0.02,-0.49 -0.07,-1.46 -0.1,-1.95 2.37,0 4.74,-0.01 7.11,0 -0.63,-5.73 -1.73,-11.38 -3.21,-16.94 -2.21,0.56 -4.42,1.13 -6.63,1.72 -0.15,-0.3 -0.45,-0.9 -0.61,-1.2 2.24,-0.63 4.48,-1.25 6.73,-1.87 -2.03,-5.96 -4.65,-11.72 -7.95,-17.09 -2.23,1.28 -4.46,2.57 -6.85,3.52 1.35,-2.37 3.98,-3.35 6.18,-4.72 -3.51,-5.23 -7.52,-10.11 -12.03,-14.5 -1.88,1.86 -3.75,3.75 -5.95,5.25 0.82,-2.55 2.98,-4.24 4.81,-6.04 -0.47,-0.49 -1.4,-1.48 -1.86,-1.97 z"
     id="path450"
     inkscape:connector-curvature="0"
     style="fill:#000000" />
  <path
     d="m 727.50498,840.11418 c 8.02,-3.88 15.87,-8.08 23.85,-12.03 0.01,2.64 0.01,5.28 0.01,7.93 20.99,0.17 41.97,-0.42 62.97,-0.25 14.66,-0.61 29.34,0.11 44.01,-0.5 9.33,-0.03 18.65,0.03 27.98,-0.01 13.65,-0.6 27.32,0.1 40.98,-0.43 52.9,-0.24 105.79002,-0.74 158.70002,-1.05 0,2.67 -0.02,5.35 -0.11,8.03 -16.19,-0.11 -32.38,0.42 -48.57,0.2 -15,0.61 -30.02,-0.1 -45.02002,0.51 -20.63,-0.18 -41.25,0.43 -61.88,0.24 -14.37,0.61 -28.75,-0.09 -43.11,0.48 -45.28,0.08 -90.55,0.73 -135.83,0.79 0,2.67 0,5.35 0,8.03 -7.99,-3.99 -16.16,-7.63 -23.98,-11.94 z"
     id="path452"
     style="fill:#4d4d4d"
     inkscape:connector-curvature="0" />
  <path
     d="m 625.98498,836.77418 c 2.68,-0.01 5.36,-0.02 8.04,-0.01 0.03,2.7 0.084,8.0613 0.084,8.0613 0,0 -6.23398,-0.051 -8.11398,-0.061 -0.01,-2.67 -0.01,-5.33 -0.01,-7.99 z"
     id="path454"
     inkscape:connector-curvature="0"
     style="fill:#808080"
     sodipodi:nodetypes="ccccc" />
  <path
     d="m 625.97498,852.76418 c 2.25,0 4.51,0 6.77,0.01 l 1.26,0.01 c -0.01,2.64 -0.02,5.28 -0.03,7.92 -0.53,0.02 -1.61,0.05 -2.15,0.07 -1.94,0.02 -3.87,0.01 -5.8,0.01 -0.02,-2.67 -0.04,-5.35 -0.05,-8.02 z"
     id="path456"
     style="fill:#808080"
     inkscape:connector-curvature="0" />
  <path
     d="m 554.27498,864.01418 c 0.85,0.57 1.72,1.13 2.59,1.69 -1.06,4.52 -1.79,9.11 -2.27,13.73 1.12,0.25 6.35146,0.081 6.35146,0.081 l 0.0485,2.2987 c 0,0 20.64,-0.2 30.97,-0.29 6.56,1.93 13.19,3.58 19.9,4.91 -19.12,0.19 -38.25,-0.07 -57.37,0.32 0.08,4.63 0.63,9.24 1.48,13.8 2.02,-0.55 4.04,-1.08 6.07,-1.62 0.08,0.32 0.24,0.95 0.32,1.26 -2.04,0.54 -4.08,1.08 -6.12,1.63 1.35,6.11 3.38,12.05 6.01,17.72 2.18,-1.26 4.35,-2.51 6.68,-3.47 -1.09,2.52 -3.87,3.35 -6.03,4.75 2.85,5.56 6.31,10.78 10.22,15.65 2.02,-1.99 3.86,-4.33 6.57,-5.43 -1.52,2.43 -3.59,4.42 -5.61,6.42 4.58,5.22 9.91,9.73 15.63,13.67 1.39,-2.41 2.78,-4.82 4.21,-7.21 0.26,0.21 0.76,0.62 1.01,0.82 -1.34,2.36 -2.7,4.71 -4.04,7.07 5.41,3.56 11.4,6.1 17.51,8.23 0.88,-3.1 1.24,-6.48 3.23,-9.14 -0.08,3.22 -1.13,6.3 -2.01,9.37 6.02,2.1 12.39,2.91 18.74,3.33 0,-3.03 0,-6.06 0,-9.09 1.32,-0.01 2.64,-0.01 3.96,0 0.02,2.66 0.122,9.47 0.122,9.47 0,0 3.13646,-0.5292 4.998,-0.64 11.71,-0.9 23.18,-4.61 33.26,-10.64 -1.64,-2.81 -3.4,-5.59 -4.51,-8.66 2.87,1.77 3.92,5.17 5.63,7.9 5.33,-3.28 10.02,-7.41 14.64,-11.59 -2.45,-1.97 -5.32,-3.88 -6.28,-7.04 2.56,1.75 4.68,4.03 6.8,6.28 5.06,-5.74 9.66,-11.93 13.08,-18.8 -2.36,-1.6 -5.69,-2.31 -6.89,-5.14 2.59,1.06 5,2.52 7.43,3.91 4.66,-9.59 7.21,-20.15 7.7,-30.79 1.01,-0.01 2.01,-0.01 3.03,0 -0.85,20.11 -9.25,39.88 -23.53,54.12 -10.4874,9.0576 -29.16784,23.5185 -52.34595,23.502 -23.1781,-0.016 -34.42405,-4.032 -47.84405,-13.142 -21.98,-14.48 -35.73,-40.24 -36.14,-66.49 -19.39,0 -38.77,0.01 -58.16,-0.01 -28.65,0.64 -57.31,-0.05 -85.96,0.4 -28.33,0.39 -56.68,-0.26 -85,0.37 -19.33,-0.02 -205.86099,-2.95931 -225.190987,-2.96931 l 0,-5 c 19.349997,0.01 205.910987,2.93931 225.260987,2.96931 28.46,-0.64 56.94,0.05 85.41,-0.4 28.49,-0.39 57.01,0.25 85.5,-0.37 19.31,0.03 38.62,-0.01 57.93,0.02 0.65,-5.97 1.47,-11.94 3.01,-17.76 z"
     id="path458"
     inkscape:connector-curvature="0"
     style="fill:#000000"
     sodipodi:nodetypes="cccccccccccccccccccccccccccccccccccccccccczccccccccccccc" />
  <path
     d="m 633.96498,872.67418 c 3.25,-0.62 6.48,-1.35 9.63,-2.38 1.99,2.53 4.8,8.32 4.8,8.32 l -4.31,9.9 c 0,0 -5.21641,8.0795 -5.97906,14.0369 -5.03,0.12 -10.25359,-0.04 -15.27359,0.05 -2.41428,-7.8 -4.09702,-8.3392 -6.33623,-13.5197 -0.88547,-1.0417 -0.93112,-1.7172 -1.88112,-2.2572 3.72181,-0.6673 7.8791,-0.6958 11.22,1.15 -0.03,1.22 -0.06,3.68 -0.06,3.68 l 8.19,-0.01 c 0,0 -0.48171,-2.4472 -0.49171,-3.1372 4.09,-0.04 -2.08895,-10.6095 -1.49895,-13.1695 1.04023,-1.4239 1.63372,-1.9374 1.99066,-2.6633 z"
     id="path464"
     inkscape:connector-curvature="0"
     style="fill:#000000"
     sodipodi:nodetypes="cccccccccccccc" />
  <path
     d="m 616.83857,871.45798 c 2.81094,0.2241 6.06641,0.4062 9.01641,1.1762 -0.04,1.2 9.76302,2.5191 10.31832,8.8914 -2.72907,-0.8638 -6.8561,0.4597 -10.60167,-0.9055 -1.08,0.29 -4.67665,-0.8997 -5.77665,-0.7397 -2.11,-0.25 -4.21,-0.679 -6.3,-1.059 0.99,-2.18 1.95359,-5.4034 3.34359,-7.3634 z"
     id="path466"
     inkscape:connector-curvature="0"
     style="fill:#000000"
     sodipodi:nodetypes="ccccccc" />
  <path
     d="m 625.89498,868.76418 c 1.62,0 3.24,-0.01 4.87,0.01 1.04,0 2.08,0.01 3.12,0.03 0,1.28 0.02,2.57 0.08,3.87 0.02,0.28 0.05,0.83 0.07,1.11 -0.05,0.61 -0.13,1.83 -0.17,2.44 l -1.06,0.6 c -1.58,0.01 -3.16,0.01 -4.73,-0.09 l -2.42,-0.5 c 0.09,-1.21 0.16,-2.4 0.2,-3.6 0.01,-1.29 0.03,-2.59 0.04,-3.87 z"
     id="path462"
     style="fill:#808080"
     inkscape:connector-curvature="0" />
  <path
     d="m 1340.375,879.27418 c 25.65,-0.52 51.32,-0.16 76.98,-0.26 29,-0.5 58.01,-0.14 87.01,-0.25 l 0,5.01 c -24.68,-0.01 -49.35,-0.02 -74.03,0 -29.63,0.68 -59.29,-0.2 -88.92,0.5 -28.02,0.03 -56.05,-0.17 -84.06,0.24 -41.88,-0.19 -83.74,0.41 -125.61,0.25 5.57,-1.77 11.23,-3.24 16.8,-5 35.96,0.07 71.91,-0.44 107.88,-0.25 27.98,-0.39 55.96,-0.23 83.95,-0.24 z"
     id="path474"
     inkscape:connector-curvature="0"
     style="fill:#000000" />
  <path
     d="m 956.11498,880.31418 c 7.06,-0.86 14.17,-0.3 21.27,-0.44 21,-0.15 42.01002,0.37 63.00002,-0.38 21.77,0 43.54,0.07 65.31,0.02 -0.34,0.2 -1.01,0.61 -1.34,0.81 -2.39,-0.08 -4.76,-0.12 -7.13,-0.15 -18.94,-0.09 -37.88,-0.01 -56.81,-0.04 -15.03,0.64 -30.07,0.19 -45.10002,0.33 -13.07,-0.09 -26.14,0.18 -39.2,-0.15 z"
     id="path476"
     inkscape:connector-curvature="0"
     style="fill:#859397" />
  <path
     d="m 798.91498,880.64418 c 26.15,-0.2 52.3,0 78.45,-0.11 26.24,-0.18 52.5,0.26 78.75,-0.22 13.06,0.33 26.13,0.06 39.2,0.15 15.03002,-0.14 30.07002,0.31 45.10002,-0.33 18.93,0.03 37.87,-0.05 56.81,0.04 0.06,1.57 0.12,3.15 0.2,4.73 -0.43,-1.07 -0.85,-2.15 -1.26,-3.21 -51.93,-0.24 -103.87002,-0.06 -155.80002,-0.1 -23.68,-0.12 -47.35,0.27 -71.02,-0.27 -21.33,0.09 -42.66,-0.06 -63.98,0.05 -2.18,-0.08 -4.31,-0.44 -6.45,-0.73 z"
     id="path478"
     style="fill:#000000"
     inkscape:connector-curvature="0" />
  <path
     d="m 1097.225,880.17418 c 2.37,0.03 4.74,0.07 7.13,0.15 -2.32,1.52 -4.63,3.06 -6.93,4.58 -0.08,-1.58 -0.14,-3.16 -0.2,-4.73 z"
     id="path480"
     inkscape:connector-curvature="0"
     style="fill:#08040c" />
  <path
     d="m 625.88498,884.76418 c 2.65,0 5.3,0 7.96,0.01 0.02,1.36 0.05,2.74 0.08,4.12 0.01,0.69 0.04,2.75 0.04,2.75 l -8.19,0.01 c 0,0 0.03,-2.46 0.06,-3.68 0.01,-0.8 0.04,-2.4 0.05,-3.21 z"
     id="path484"
     inkscape:connector-curvature="0"
     style="fill:#808080"
     sodipodi:nodetypes="ccccccc" />
  <path
     d="m 699.33498,899.07418 c 1.57,-1.94 4.22,0.42 6.23,0.51 -0.1,0.31 -0.3,0.95 -0.41,1.26 -1.96,-0.54 -3.91,-1.09 -5.82,-1.77 z"
     id="path498"
     inkscape:connector-curvature="0"
     style="fill:#000000" />
  <path
     d="m 648.35498,951.81418 c 0.34,0.24 1.01,0.72 1.35,0.96 0.47,1.91 1.86802,6.6421 2.36802,8.5521 -0.29,0.18 -0.87,-0.072 -1.16,0.098 -0.81,-2.4 -2.26802,-7.0901 -2.55802,-9.6101 z"
     id="path532"
     inkscape:connector-curvature="0"
     style="fill:#000000"
     sodipodi:nodetypes="ccccc" />
  <text
     xml:space="preserve"
     style="font-size:32px;font-style:normal;font-weight:normal;line-height:125%;letter-spacing:0px;word-spacing:0px;fill:#000000;fill-opacity:1;stroke:none;font-family:Sans"
     x="362.87854"
     y="685.97327"
     id="text3671"
     sodipodi:linespacing="125%"><tspan
       sodipodi:role="line"
       id="tspan3673"
       x="362.87854"
       y="685.97327">Fix end</tspan></text>
  <text
     xml:space="preserve"
     style="font-size:32px;font-style:normal;font-weight:normal;line-height:125%;letter-spacing:0px;word-spacing:0px;fill:#000000;fill-opacity:1;stroke:none;font-family:Sans"
     x="1100.8127"
     y="763.25452"
     id="text3700"
     sodipodi:linespacing="125%"><tspan
       sodipodi:role="line"
       id="tspan3702"
       x="1100.8127"
       y="763.25452"
       dy="9.6639996">Outbound</tspan><tspan
       sodipodi:role="line"
       x="1100.8127"
       y="803.25452"
       id="tspan3704">end</tspan></text>
  <flowRoot
     xml:space="preserve"
     id="flowRoot3706"
     style="font-size:40px;font-style:normal;font-weight:normal;line-height:125%;letter-spacing:0px;word-spacing:0px;fill:#000000;fill-opacity:1;stroke:none;font-family:Sans"
     transform="matrix(0.8,0,0,0.8,264.36498,374.51418)"><flowRegion
       id="flowRegion3708"><rect
         id="rect3710"
         width="82.677254"
         height="72.211777"
         x="1312.3705"
         y="318.15042" /></flowRegion><flowPara
       id="flowPara3712"></flowPara></flowRoot>  <text
     xml:space="preserve"
     style="font-size:32px;font-style:normal;font-weight:normal;line-height:125%;letter-spacing:0px;word-spacing:0px;fill:#808080;fill-opacity:1;stroke:none;font-family:Sans"
     x="578.23676"
     y="478.42679"
     id="text4513"
     sodipodi:linespacing="125%"><tspan
       sodipodi:role="line"
       id="tspan4515"
       x="578.23676"
       y="478.42679">ABEAM</tspan></text>
  <text
     xml:space="preserve"
     style="font-size:32px;font-style:normal;font-weight:normal;line-height:125%;letter-spacing:0px;word-spacing:0px;fill:#4d4d4d;fill-opacity:1;stroke:none;font-family:Sans"
     x="826.03027"
     y="826.37012"
     id="text4521"
     sodipodi:linespacing="125%"><tspan
       sodipodi:role="line"
       id="tspan4523"
       x="826.03027"
       y="826.37012">Inbound leg</tspan></text>
  <text
     xml:space="preserve"
     style="font-size:32px;font-style:normal;font-weight:normal;line-height:125%;letter-spacing:0px;word-spacing:0px;fill:#000000;fill-opacity:1;stroke:none;font-family:Sans"
     x="765.11438"
     y="928.58496"
     id="text4544"
     sodipodi:linespacing="125%"><tspan
       sodipodi:role="line"
       id="tspan4546"
       x="765.11438"
       y="928.58496">NON-HOLDING SIDE</tspan></text>
  <path
     inkscape:connector-curvature="0"
     d="m 625.95684,804.58618 c 2.66,-0.01 5.32,-0.01 7.99,-0.01 0,2.66 0,5.33 0,8 -2.67,0 -5.33,0 -8,0 0,-2.67 0,-5.34 0.01,-7.99 z"
     id="path434-1"
     style="fill:#808080" />
  <path
     transform="matrix(2.1889448,0,0,2.1888527,-1065.1359,-435.19433)"
     style="fill:none;stroke:#808080;stroke-width:1.82740294000000000;stroke-miterlimit:4;stroke-opacity:1;stroke-dashoffset:0;stroke-dasharray:none;marker-start:url(#DotS);marker-mid:none;marker-end:url(#DotS)"
     d="M 854.50064,399.45461 C 966.19725,445.77157 1019.4181,574.40109 973.37284,686.75667 929.7423,793.21996 811.88948,847.84054 703.08848,812.02383"
     id="path4580"
     inkscape:connector-curvature="0"
     sodipodi:nodetypes="csc" />
  <path
     transform="matrix(2.1889448,0,0,2.1888527,-1064.5293,-435.79555)"
     style="fill:none;stroke:#808080;stroke-width:1.82740295;stroke-miterlimit:4;stroke-opacity:1;stroke-dashoffset:0;marker-start:url(#DotS);marker-end:url(#DotS)"
     d="M 695.83159,809.49218 C 653.24771,793.78854 617.69024,765.68137 592.62758,730.09539 567.56493,694.50941 552.09579,652.79661 551.49118,607.17774"
     id="path4580-7"
     inkscape:connector-curvature="0"
     sodipodi:nodetypes="csc" />
  <path
     transform="matrix(2.1889448,0,0,2.1888527,-1066.5022,-437.76841)"
     style="fill:none;stroke:#808080;stroke-width:1.82740295000000000;stroke-miterlimit:4;stroke-opacity:1;stroke-dashoffset:0;marker-start:url(#DotS);marker-end:url(#DotS)"
     d="m 552.41651,598.50545 c 2.40863,-121.50378 102.28179,-218.03796 223.07294,-215.61511 23.71439,0.47566 47.19403,4.82769 69.51945,12.88566"
     id="path4580-7-4"
     inkscape:connector-curvature="0"
     sodipodi:nodetypes="csc" />
  <path
     style="fill:none;stroke:#000000;stroke-width:3;stroke-linecap:butt;stroke-linejoin:miter;stroke-opacity:1;stroke-miterlimit:4;stroke-dasharray:none"
     d="M 1041.1554,409.31369 564.03885,1720.1808"
     id="path7118"
     inkscape:connector-curvature="0"
     transform="scale(0.8,0.8)"
     sodipodi:nodetypes="cc" />
  <text
     xml:space="preserve"
     style="font-size:32px;font-style:normal;font-weight:normal;line-height:125%;letter-spacing:0px;word-spacing:0px;fill:#000000;fill-opacity:1;stroke:none;font-family:Sans"
     x="785.76385"
     y="522.823"
     id="text4548"
     sodipodi:linespacing="125%"><tspan
       sodipodi:role="line"
       id="tspan4550"
       x="785.76385"
       y="522.823">HOLDING SIDE</tspan></text>
  <text
     xml:space="preserve"
     style="font-size:32px;font-style:normal;font-weight:normal;line-height:125%;letter-spacing:0px;word-spacing:0px;fill:#000000;fill-opacity:1;stroke:none;font-family:Sans"
     x="824.66095"
     y="390.62885"
     id="text7120"
     sodipodi:linespacing="125%"><tspan
       sodipodi:role="line"
       id="tspan7122"
       x="824.66095"
       y="390.62885">70°</tspan></text>
  <text
     xml:space="preserve"
     style="font-size:32px;font-style:normal;font-weight:normal;line-height:125%;letter-spacing:0px;word-spacing:0px;fill:#808080;fill-opacity:1;stroke:none;font-family:Sans"
     x="990.38226"
     y="1246.8557"
     id="text7124"
     sodipodi:linespacing="125%"><tspan
       sodipodi:role="line"
       id="tspan7126"
       x="990.38226"
       y="1246.8557">Direct entry</tspan></text>
  <text
     xml:space="preserve"
     style="font-size:32px;font-style:normal;font-weight:normal;line-height:125%;letter-spacing:0px;word-spacing:0px;fill:#808080;fill-opacity:1;stroke:none;font-family:Sans"
     x="61.159069"
     y="1189.6423"
     id="text7128"
     sodipodi:linespacing="125%"><tspan
       sodipodi:role="line"
       id="tspan7130"
       x="61.159069"
       y="1189.6423">Offset entry</tspan></text>
  <text
     xml:space="preserve"
     style="font-size:32px;font-style:normal;font-weight:normal;line-height:125%;letter-spacing:0px;word-spacing:0px;fill:#808080;fill-opacity:1;stroke:none;font-family:Sans"
     x="138.1011"
     y="493.21823"
     id="text7132"
     sodipodi:linespacing="125%"><tspan
       sodipodi:role="line"
       x="138.1011"
       y="493.21823"
       id="tspan7136">Parallel entry</tspan></text>
  <path
     style="fill:none;stroke:#000000;stroke-width:1.5;stroke-linecap:butt;stroke-linejoin:miter;stroke-miterlimit:4;stroke-opacity:1;stroke-dasharray:12, 12;stroke-dashoffset:0;marker-start:url(#Arrow1Lend);marker-mid:url(#Arrow1Mend);marker-end:url(#Arrow1Lend)"
     d="m 184.84172,725.28962 300.80375,190.07309 300.80375,190.07309 c 0,0 87.82869,64.175 139.50319,74.983 96.50969,20.1854 159.34949,24.4353 238.13739,23.4757 78.7878,-0.9597 253.6747,-7.4552 333.8257,-7.7816 80.151,-0.3264 157.8012,-101.3643 184.2176,-202.15363 26.4165,-100.78932 1.5992,-201.33 -123.185,-200.66184 -87.2927,0.66815 -130.806,46.36955 -162.4595,98.70194 -31.6534,52.33239 -51.4469,111.29583 -91.2999,138.48793 -112.8379,80.5412 -387.95518,66.2295 -387.95518,66.2295"
     id="path7140"
     inkscape:connector-curvature="0"
     transform="scale(0.8,0.8)"
     sodipodi:nodetypes="cccsszscscc" />
  <path
     style="fill:none;stroke:#000000;stroke-width:1.5;stroke-linecap:butt;stroke-linejoin:miter;stroke-miterlimit:4;stroke-opacity:1;stroke-dasharray:12, 6;stroke-dashoffset:0;marker-start:url(#Arrow1Lend);marker-mid:url(#Arrow1Mend);marker-end:url(#Arrow1Lend)"
     d="M 287.72532,1565.7963 538.83106,1336.488 789.9368,1107.1796 c 0,0 114.32755,-111.15268 245.1664,-222.53029 130.8389,-111.37761 278.1892,-222.98016 344.2345,-223.87991 161.9743,1.10312 229.8038,108.85977 234.7777,216.95575 4.9738,108.09598 -52.9081,216.53125 -142.3568,218.99175"
     id="path9282"
     inkscape:connector-curvature="0"
     transform="scale(0.8,0.8)"
     sodipodi:nodetypes="cccscsc" />
  <path
     style="fill:none;stroke:#000000;stroke-width:1.50000000000000000;stroke-linecap:butt;stroke-linejoin:miter;stroke-miterlimit:4;stroke-opacity:1;stroke-dasharray:12, 6;stroke-dashoffset:0;marker-start:url(#Arrow1Lstart);marker-mid:url(#Arrow1Mstart);marker-end:url(#Arrow1Lstart)"
     d="m 800.39954,1136.824 125.55286,91.549 125.5529,91.549 125.5528,91.5489 125.5529,91.549"
     id="path10864"
     inkscape:connector-curvature="0"
     transform="scale(0.8,0.8)"
     sodipodi:nodetypes="ccccc" />
  <text
     xml:space="preserve"
     style="font-size:32px;font-style:normal;font-weight:normal;line-height:125%;letter-spacing:0px;word-spacing:0px;fill:#4d4d4d;fill-opacity:1;stroke:none;font-family:Sans"
     x="809.51068"
     y="617.81055"
     id="text4552"
     sodipodi:linespacing="125%"><tspan
       sodipodi:role="line"
       id="tspan4554"
       x="809.51068"
       y="617.81055">Outbound leg</tspan></text>
  <text
     xml:space="preserve"
     style="font-size:32px;font-style:normal;font-weight:normal;line-height:125%;letter-spacing:0px;word-spacing:0px;fill:#000000;fill-opacity:1;stroke:none;font-family:Sans"
     x="703.0777"
     y="770.52771"
     id="text4482"
     sodipodi:linespacing="125%"><tspan
       sodipodi:role="line"
       id="tspan4484"
       x="703.0777"
       y="770.52771"
       dy="10.55999"
       style="font-size:22.39999962px;fill:#808080">Holding</tspan><tspan
       sodipodi:role="line"
       x="703.0777"
       y="798.52771"
       id="tspan4486"
       style="font-size:22.39999962px;fill:#808080">fix</tspan></text>
</svg>
